<svg t="1722732633511" class="icon" viewBox="0 0 1024 1024" version="1.1"
  xmlns="http://www.w3.org/2000/svg" p-id="9216" width="200" height="200">
  <path
    d="M510.674824 953.404235a451.764706 451.764706 0 1 1 0-903.529411 451.764706 451.764706 0 0 1 0 903.529411z"
    fill="#FCCF2A" p-id="9217"></path>
  <path
    d="M726.738824 828.175059L402.130824 523.203765a30.117647 30.117647 0 1 1 42.10447-43.128471l330.571294 310.573177c25.780706-23.612235 48.429176-50.597647 67.222588-80.353883l-198.535529-186.729412a30.117647 30.117647 0 1 1 41.261177-43.851294l186.307764 175.224471A391.529412 391.529412 0 0 0 135.710118 388.517647c50.778353 86.979765 126.494118 185.524706 221.30447 280.274824 87.702588 87.762824 178.597647 159.081412 260.577883 209.498353a389.722353 389.722353 0 0 0 109.146353-50.176zM71.077647 397.131294C-1.204706 264.252235-19.275294 150.708706 38.309647 93.123765c51.320471-51.380706 144.203294-43.791059 259.132235 10.119529a451.764706 451.764706 0 0 1 615.183059 604.762353c62.885647 124.265412 74.450824 225.219765 20.118588 279.552-60.596706 60.656941-183.235765 37.466353-325.150117-44.574118A451.764706 451.764706 0 0 1 71.077647 397.131294z m27.226353-80.173176a453.391059 453.391059 0 0 1 138.24-174.441412c-75.776-29.696-131.312941-31.081412-155.587765-6.806588-29.515294 29.515294-21.383529 96.195765 17.347765 181.248z m776.613647 452.005647a453.330824 453.330824 0 0 1-187.271529 148.48c95.171765 47.344941 170.586353 59.512471 202.571294 27.527529 26.503529-26.503529 22.287059-90.112-15.299765-176.007529zM119.868235 477.545412a391.529412 391.529412 0 0 0 408.997647 415.201882 1597.861647 1597.861647 0 0 1-214.437647-181.308235c-77.583059-77.522824-143.600941-157.515294-194.56-233.893647z m352.978824-144.624941l-62.945883 30.358588 18.913883-82.82353-41.803294-74.691764 78.064941 16.624941 54.332235-51.802353 12.047059 68.367059 71.198118 32.527059-66.379294 35.779764v80.414118l-63.488-54.814118z"
    fill="#333333" p-id="9218"></path>
</svg>