<?xml version="1.0" standalone="no"?><!DOCTYPE svg PUBLIC "-//W3C//DTD SVG 1.1//EN" "http://www.w3.org/Graphics/SVG/1.1/DTD/svg11.dtd"><svg t="1770280665804" class="icon" viewBox="0 0 1024 1024" version="1.1" xmlns="http://www.w3.org/2000/svg" p-id="6078" xmlns:xlink="http://www.w3.org/1999/xlink" width="200" height="200"><path d="M319.648 188.512V131.104C319.648 94.048 351.936 64 391.776 64h240.416c39.84 0 72.128 30.048 72.128 67.104v57.408c0 1.184-0.32 2.304-0.384 3.488H928a32 32 0 0 1 0 64h-64v608.032a96 96 0 0 1-96 96H256a96 96 0 0 1-96-96V256H96a32 32 0 0 1 0-64h224.032c-0.064-1.184-0.384-2.304-0.384-3.488zM224 256.032v576a64 64 0 0 0 64 64h448a64 64 0 0 0 64-64v-576H224zM640.192 159.68c0-17.76-14.336-32.128-32.064-32.128h-192.32c-17.696 0-32.064 14.4-32.064 32.128v32.352h256.448V159.68zM608 768a32 32 0 0 1-32-32V416a32 32 0 1 1 64 0v320c-0.032 17.664-14.336 32-32 32z m-192 0a32 32 0 0 1-32-32V416a32 32 0 1 1 64 0v320a32 32 0 0 1-32 32z" p-id="6079"></path></svg>