<?xml version="1.0" standalone="no"?><!DOCTYPE svg PUBLIC "-//W3C//DTD SVG 1.1//EN" "http://www.w3.org/Graphics/SVG/1.1/DTD/svg11.dtd"><svg t="1759994356636" class="icon" viewBox="0 0 1024 1024" version="1.1" xmlns="http://www.w3.org/2000/svg" p-id="11396" xmlns:xlink="http://www.w3.org/1999/xlink" width="200" height="200"><path d="M640 64H128c-35.3 0-64 28.7-64 64v256c0 35.3 28.7 64 64 64h512c35.3 0 64-28.7 64-64V128c0-35.3-28.7-64-64-64z m-51.2 268.8H179.2V179.2h409.6v153.6zM640 576H128c-35.3 0-64 28.7-64 64v256c0 35.3 28.7 64 64 64h512c35.3 0 64-28.7 64-64V640c0-35.3-28.7-64-64-64z m-51.2 268.8H179.2V691.2h409.6v153.6zM889.6 64c-31.8 0-57.6 25.8-57.6 57.6v780.8c0 31.8 25.8 57.6 57.6 57.6s57.6-25.8 57.6-57.6V121.6c0-31.8-25.8-57.6-57.6-57.6z" fill="#666666" p-id="11397"></path></svg>