<?xml version="1.0" standalone="no"?><!DOCTYPE svg PUBLIC "-//W3C//DTD SVG 1.1//EN" "http://www.w3.org/Graphics/SVG/1.1/DTD/svg11.dtd"><svg t="1768466094838" class="icon" viewBox="0 0 1024 1024" version="1.1" xmlns="http://www.w3.org/2000/svg" p-id="28134" xmlns:xlink="http://www.w3.org/1999/xlink" width="200" height="200"><path d="M912 288h-80v448h80c26.6 0 48 21.4 48 48s-21.4 48-48 48h-80v80c0 26.6-21.4 48-48 48s-48-21.4-48-48v-80H288v80c0 26.6-21.4 48-48 48-26.5 0-48-21.4-48-48v-80H112c-26.5 0-48-21.4-48-48s21.5-48 48-48h80V288H112c-26.5 0-48-21.4-48-48s21.5-48 48-48h80V112c0-26.5 21.5-48 48-48 26.6 0 48 21.5 48 48v80h448V112c0-26.5 21.4-48 48-48s48 21.5 48 48v80h80c26.6 0 48 21.4 48 48s-21.4 48-48 48zM288 736h448V288H288v448z" p-id="28135"></path></svg>