<?xml version="1.0" standalone="no"?><!DOCTYPE svg PUBLIC "-//W3C//DTD SVG 1.1//EN" "http://www.w3.org/Graphics/SVG/1.1/DTD/svg11.dtd"><svg t="1768465353932" class="icon" viewBox="0 0 1024 1024" version="1.1" xmlns="http://www.w3.org/2000/svg" p-id="21427" xmlns:xlink="http://www.w3.org/1999/xlink" width="200" height="200"><path d="M870.4 221.866667h-136.533333v68.266666h68.266666v102.4h68.266667V221.866667z m-187.733333 0h-136.533334v68.266666h136.533334v-68.266666z m-187.733334 0h-136.533333v68.266666h136.533333v-68.266666z m-187.733333 0H153.6v170.666666h68.266667v-102.4h85.333333v-68.266666z m-85.333333 221.866666H153.6v136.533334h68.266667v-136.533334z m0 187.733334H153.6v170.666666h153.6v-68.266666h-85.333333v-102.4z m273.066666 102.4h-136.533333v68.266666h136.533333v-68.266666z m187.733334 0h-136.533334v68.266666h136.533334v-68.266666z m187.733333-102.4h-68.266667v102.4h-68.266666v68.266666h136.533333V631.466667z m0-187.733334h-68.266667v136.533334h68.266667v-136.533334z" fill="#666666" p-id="21428"></path></svg>